<?xml version="1.0" encoding="UTF-8" standalone="no"?>
<!-- Created with Inkscape (http://www.inkscape.org/) -->

<svg
   width="22.462862mm"
   height="22.607479mm"
   viewBox="0 0 22.462862 22.607479"
   version="1.1"
   id="svg1"
   xmlns="http://www.w3.org/2000/svg"
   xmlns:svg="http://www.w3.org/2000/svg">
  <defs
     id="defs1" />
  <g
     id="layer1"
     transform="translate(-13.012783,-39.749755)">
    <path
       id="rect1-1-1-7-2"
       style="fill:#ffffff;fill-opacity:1;stroke:none;stroke-width:0.148114;stroke-dasharray:none;stroke-opacity:1"
       d="m 17.789684,39.762862 c -0.78141,0.04629 -1.53815,0.248004 -2.2575,0.6974 -0.61789,-0.02215 -0.84998,0.860246 -1.38715,1.15537 -0.5685,0.299945 -0.53722,1.205798 -0.83745,1.70613 -0.18573,0.56539 -0.20125,1.031429 -0.2948,1.6074 0.009,0.36047 0.0684,0.736987 0.11438,1.06981 -0.15736,0.313856 -0.0635,0.683286 0.0493,0.960003 -0.37431,0.296081 0.25614,0.700326 -0.12744,0.966987 -0.005,0.365339 0.17078,0.765385 -0.0254,1.087599 0.16549,0.342875 0.0246,0.698234 0.1129,1.000098 0.008,0.397612 0.003,0.822587 -0.0911,1.211049 0.0918,0.442765 -0.002,0.909784 0.13095,1.357754 -0.15035,0.288473 -0.18108,0.67765 -0.059,0.9746 0.0845,0.373346 -0.11513,0.635244 0.0747,1.047854 0.0212,0.333535 -0.16526,0.696665 -0.0287,0.987302 0.13586,0.337082 -0.37417,0.742385 -0.005,1.030644 -0.26706,0.382375 0.21744,0.706425 -0.013,1.088487 -0.0346,0.782082 0.31381,1.727639 0.6919,2.42755 0.56055,0.639621 1.05543,1.399437 1.90309,1.605338 0.71659,0.500188 1.57947,0.447669 2.34999,0.552388 0.29189,-0.251273 0.6765,0.149433 1.0085,-0.06659 0.3172,0.0396 0.65171,0.173802 1.00125,0.110489 0.39107,0.0076 0.77,-0.295576 1.14115,-0.01966 0.29676,-0.18618 0.6766,0.03444 1.00166,-0.09643 0.48988,0.0098 0.97389,-0.09003 1.44715,0.09036 0.36339,0.110175 0.71102,-0.269824 1.06581,-0.02926 0.36107,-0.158301 0.69139,0.02412 1.06551,0.02876 0.37137,0.0256 0.70188,-0.09704 1.07953,-0.02398 0.47059,-0.07689 0.9466,0.201521 1.40734,-0.04295 0.37296,0.123856 0.70592,0.03636 1.04758,-0.01637 0.34646,0.167781 0.73863,-0.150852 1.09092,0.123082 0.67244,-0.134406 1.28183,-0.05745 1.8946,-0.387312 1.04026,-0.131242 1.49156,-1.200054 2.2651,-1.7316 0.54233,-0.540251 0.3929,-1.275721 0.70029,-1.853562 0.11823,-0.367886 0.0842,-0.959535 0.0523,-1.441652 -0.0159,-0.353149 0.15266,-0.709035 -0.0199,-1.055673 0.25183,-0.314233 -0.2138,-0.626312 0.0974,-0.936613 -0.1767,-0.376821 0.0914,-0.79035 -0.0678,-1.073544 -0.19003,-0.328922 0.11219,-0.742155 0.006,-1.027882 -0.2293,-0.388834 0.16947,-0.779173 0.0236,-1.166485 -0.0106,-0.375559 -0.006,-0.720039 0.0773,-1.087789 -0.0641,-0.324842 -0.0699,-0.686544 -0.0655,-1.019 0.0872,-0.365732 -0.18138,-0.738787 0.005,-1.049846 0.069,-0.375296 -0.21016,-0.730601 0.0312,-1.051444 -0.0556,-0.336224 -0.0134,-0.667331 -0.009,-1.02281 0.10831,-0.510802 -0.32827,-1.007562 -0.0337,-1.492898 0.0913,-0.520134 -0.22584,-1.092062 -0.12604,-1.654202 -0.21664,-0.780669 -0.74102,-1.493979 -1.27365,-2.117837 -0.70119,-0.587991 -1.28717,-1.069396 -2.16339,-1.283288 -0.60158,-0.257883 -1.17128,0.05343 -1.74386,-0.09938 -0.40352,-0.07265 -0.79761,-0.04914 -1.1877,0.1013 -0.35758,0.09182 -0.74141,-0.318861 -1.04064,-0.07345 -0.26887,-0.03389 -0.63859,-0.131898 -0.99269,-0.03801 -0.35246,-0.117586 -0.6356,0.09869 -1.0012,0.06949 -0.47684,-0.02505 -0.93943,0.0068 -1.41028,-0.09085 -0.40656,-0.08527 -0.66818,0.205397 -1.08741,0.02264 -0.65659,-0.07516 -1.31526,0.254579 -1.95058,-0.02512 -0.36901,-0.02791 -0.67459,0.187973 -1.0228,0.0125 -0.35222,0.251195 -0.65833,-0.06641 -1.02331,-0.01539 -0.34888,0.07456 -0.71202,0.207252 -1.0619,0.02929 -0.17575,-0.01641 -0.35164,-0.02627 -0.5281,-0.0308 z m 0.3976,1.2416 c 0.37049,0.02204 0.59209,-0.01165 0.95111,-0.0184 0.34955,0.15684 0.62593,-0.05031 0.95288,-0.01422 0.42437,0.02596 0.86531,0.01803 1.28629,0.02472 0.36143,-0.163218 0.64212,0.132231 1.00032,0.03901 0.36152,-0.32071 0.83025,0.07976 1.20621,-0.11111 0.34626,0.272189 0.59019,-0.02571 0.99546,-0.0024 0.47718,0.01949 0.94662,0.140324 1.42873,0.06037 0.39098,-0.08455 0.69939,0.08464 1.06841,-0.01556 0.35695,0.210441 0.66842,-0.02797 1.03183,-0.02898 0.32646,-0.0044 0.64579,0.324356 0.95387,0.03329 0.34956,-0.203138 0.704,0.17623 0.99809,-0.006 0.71228,-0.01243 1.59673,0.110576 2.19031,0.658879 0.73528,0.332897 1.32059,0.972786 1.52957,1.811212 0.28718,0.49284 0.29135,1.166398 0.34555,1.734952 -0.2592,0.334797 0.0744,0.602407 0.0103,0.950536 0.004,0.394785 -0.0807,0.727551 -0.12926,1.111939 0.12287,0.332617 0.0865,0.657223 0.0815,0.955365 -0.0431,0.339538 0.0765,0.657256 -0.0318,1.051459 0.1585,0.231377 0.0761,0.647867 -0.009,0.92529 0.15136,0.264978 0.0369,0.670706 -0.0155,1.039372 -0.0127,0.398876 0.11147,0.777417 -0.008,1.169575 0.13848,0.3062 0.0434,0.702113 0.0673,0.983995 -0.16499,0.309153 0.0199,0.715729 -0.0116,1.059814 0.10498,0.332419 -0.23367,0.672036 -0.006,1.004417 0.10178,0.348493 0.0729,0.761413 0.0265,1.098651 0.0141,0.457189 -0.005,1.048374 -0.10263,1.556286 -0.27897,0.649672 -0.38054,1.185189 -0.9173,1.682937 -0.54897,0.538406 -1.3297,1.042836 -2.06098,1.151375 -0.4174,0.274971 -0.90865,-0.05578 -1.35932,0.03383 -0.35218,0.157579 -0.64921,0.04509 -1.01599,0.0064 -0.34603,-0.06277 -0.69124,0.03462 -1.00846,-0.02449 -0.41539,0.08516 -0.87638,0.06607 -1.30158,0.102574 -0.36519,-0.162718 -0.73868,0.03743 -1.08567,-0.06188 -0.60938,-0.07762 -1.23199,0.185234 -1.83796,-0.0079 -0.37961,0.0896 -0.69498,-0.116635 -1.02665,0.03597 -0.3558,-0.154758 -0.73894,-0.05273 -1.11819,-0.111111 -0.33725,0.165389 -0.67562,0.0034 -1.0481,0.01418 -0.3604,0.06701 -0.62773,0.20589 -1.01577,0.100883 -0.4801,-0.009 -1.01071,-0.236467 -1.45313,0.04364 -0.72417,-0.24107 -1.53027,-0.200048 -1.9246,-0.984 -0.86412,-0.137891 -0.85588,-1.292251 -1.3416,-1.7487 -0.0226,-0.628221 -0.0936,-1.153226 -0.0454,-1.792394 0.0752,-0.373715 -0.0831,-0.671276 -0.0993,-1.040525 0.29699,-0.317813 -0.0901,-0.666087 0.0278,-1.032368 -0.03,-0.372959 0.11544,-0.757384 -0.002,-1.088965 0.0697,-0.269826 0.16657,-0.662025 0.12161,-1.021048 -0.10649,-0.380667 -0.19991,-0.704779 -0.0391,-1.048726 0.0346,-0.398377 -0.13408,-0.810458 -0.0938,-1.189384 0.28222,-0.343179 -0.16701,-0.661881 -0.0165,-1.000749 0.13898,-0.284752 0.026,-0.571566 0.0668,-0.921441 -0.1942,-0.482002 0.0248,-0.984399 0.0243,-1.470946 0.0182,-0.32284 0.0151,-0.704846 -0.002,-1.042885 0.0227,-0.444732 -0.0341,-0.838165 -0.019,-1.261394 0.0512,-0.526469 0.34838,-1.245956 0.6487,-1.695175 0.26356,-0.92269 1.22912,-0.988075 1.81744,-1.548292 0.30665,0.146461 0.93556,-0.414238 1.31516,-0.151908 z" />
    <path
       d="m 24.924373,41.660217 q 0.0441,0 0.0441,0.06615 l 0.08819,-0.06615 h 0.132292 q 0.220486,0.132292 0.220486,0.198437 l -0.0441,0.08819 q 0.176389,0 0.242535,0.771702 v 0.308681 q -0.08819,0.110243 -0.15434,0.463021 0.06615,0.176389 0.15434,0.308681 l 0.08819,-0.0441 q 0.0441,0 0.132291,0.0441 0.551216,-0.02205 0.551216,-0.08819 0.639411,0.08819 1.036286,0.08819 0.08819,-0.0441 0.132292,-0.0441 V 43.357953 Q 27.327665,42.299619 27.327665,42.12323 v -0.132292 q 0.220486,-0.330729 0.264583,-0.330729 h 0.595313 l -0.0441,0.110243 q 0.308681,0.242535 0.308681,0.683508 -0.0441,0 -0.0441,0.0441 0.06614,0 0.15434,0.132292 v 0.0441 q 0,0.0441 -0.06615,0.0441 l 0.33073,0.948091 h 0.132291 l 0.132292,-0.08819 h 0.0441 q 0.110244,0.08819 0.198438,0.08819 0.264584,0 1.080383,-0.0441 0.903994,0 0.903994,0.551216 v 0.0441 q 0,0.286632 -0.683507,0.639411 h -0.8158 q -0.242535,0 -0.63941,0.0441 h -0.352761 q -0.0441,0.308681 -0.08819,0.308681 l 0.08819,0.176389 q -0.0441,0.198437 -0.176389,0.198437 l 0.0441,0.08819 v 0.0441 q -0.176389,0.154341 -0.33073,0.727605 -0.308681,0.352778 -0.903994,0.48507 -0.15434,0.154341 -0.220486,0.33073 l 0.0441,0.08819 v 0.352778 l 0.308681,0.06615 q 1.234724,0 1.234724,-0.242535 0,-0.330729 0.440972,-0.48507 0.727605,0.154341 0.727605,0.48507 0.06615,0 0.110243,0.463022 0,0.0441 -0.0441,0.132291 0.0441,0.242535 0.0441,0.418924 v 0.176389 q 0,0.08819 -0.0441,0.17639 0.0441,0.08819 0.0441,0.176389 v 0.198437 q 0,0.08819 -0.110243,0.08819 l 0.06615,0.08819 v 0.0441 l -0.110243,0.132291 q 0,0.0441 0.0441,0.0441 0,0.63941 -0.264583,0.63941 l 0.0441,0.220486 q -0.06615,0.0441 -0.176389,0.0441 l 0.0441,0.08819 v 0.0441 q -0.308681,0.17639 -0.308681,0.374827 h -0.110243 q -0.08819,0 -0.08819,-0.08819 -0.440972,0.220486 -1.940279,0.551216 0,0.132291 -0.0441,0.132291 l 0.0441,0.08819 v 0.352778 q 0,0.352778 0.396875,0.859897 -0.0441,0 -0.0441,0.0441 0.06615,0 0.242535,0.15434 0.63941,0.595314 1.852085,1.344967 l 0.63941,0.463021 q 0,-0.0441 0.0441,-0.0441 0.683507,0.374827 0.683507,0.771702 h -0.0441 l 0.0441,0.08819 v 0.08819 q -0.286632,0.463022 -0.63941,0.463022 h -0.0441 q -0.264584,0 -2.447399,-1.631599 -1.036285,-0.881946 -1.411112,-1.146529 -0.440973,0.837848 -1.962329,1.962328 -0.48507,0.396876 -0.815799,0.551216 0,0.110243 -0.727605,0.352778 h -0.264584 v -0.0441 q 0,-0.0441 0.0441,-0.0441 0,-0.0441 -0.286633,-0.374827 l 0.06615,-0.176389 -0.06615,-0.08819 q 0.440973,-0.573264 1.697745,-1.322918 l 0.08819,0.0441 q 0,-0.154341 0.948091,-0.859897 0,-0.06615 0.63941,-0.683508 0,-0.286632 0.220487,-0.529167 v -0.771702 q 0,-0.0441 -0.176389,-0.198438 -0.08819,0.0441 -0.132292,0.0441 -0.154341,-0.08819 -0.286632,-0.08819 h -0.264584 l -0.308681,0.0441 q 0,-0.06615 -0.418924,-0.176389 l -0.08819,0.0441 q -1.124502,-0.617363 -1.124502,-1.984379 v -0.330729 q 0,-1.543405 0.352778,-1.543405 l 0.132292,-0.08819 h 0.220487 q 0.242535,0.132292 0.418924,0.63941 h 0.507118 l 0.132292,-0.08819 h 0.551216 q 0.0441,0 0.0441,0.0441 0.48507,0 0.48507,-0.242535 l 0.0441,-0.529167 q -1.190626,-0.374827 -1.300869,-0.8158 -0.463021,-0.463021 -0.463021,-1.190626 h -0.0441 l -0.264583,0.0441 q -0.0441,0 -0.286632,-0.0441 -0.02205,0 -0.48507,0.08819 v -0.0441 q -0.176389,0.08819 -0.374827,0.08819 h -0.08819 Q 22.410838,44.967511 22.410838,44.65883 h -0.0441 q 0,-0.661459 0.63941,-0.661459 0,-0.06615 0.0441,-0.06615 l 0.08819,0.06615 0.286632,-0.06615 h 0.0441 q 0.0441,0 0.0441,0.06615 0.308681,-0.06615 0.396875,-0.154341 0.0441,0.154341 0.110243,0.154341 l 0.220487,-0.154341 h 0.0441 l 0.08819,0.0441 q 0.02205,-0.396876 0.08819,-0.396876 0,-0.0441 -0.0441,-0.0441 0,-0.06615 0.08819,-0.507119 l -0.0441,-0.08819 q 0.0441,-0.396875 0.08819,-0.396875 l -0.0441,-0.110244 q 0.06615,-0.110243 0.418924,-0.683507 z m -5.776742,0.595313 0.551216,0.330729 q 0.48507,0.859897 0.48507,1.168578 0.286632,0.63941 0.463022,1.499307 -0.0441,0.264584 -0.0441,0.374827 0,0.02205 0.0441,0.264583 l -0.0441,0.08819 q 0.132292,0.242535 0.132292,0.463021 v 0.0441 q 0,0.0441 -0.0441,0.0441 0.08819,0.418924 0.132292,1.411112 h -0.0441 q 0,0.0441 0.0441,0.0441 -0.08819,0.440972 -0.08819,0.815799 v 0.176389 q 0,0.110243 -0.0441,0.176389 l 0.0441,0.110243 q 0,0.440973 -0.264584,1.080383 -0.08819,0.881946 -0.08819,1.322918 h -0.0441 q 0,0.0441 0.0441,0.0441 -0.0441,0.595313 -0.08819,0.595313 l 0.0441,0.08819 v 0.08819 l -0.0441,0.264583 q 0,0.0441 0.0441,0.0441 l -0.0441,0.330729 v 0.220486 l 0.0441,0.308681 q -0.08819,0.02205 -0.08819,0.08819 0.08819,0.198438 0.08819,0.286632 h -0.0441 l 0.0441,0.08819 q -0.08819,0.15434 -0.08819,0.264583 V 54.6248 h 0.08819 q 0,0.06615 -0.154341,0.132292 l 0.06615,0.0882 q 0,0.0441 -0.06615,0.0441 0.110243,0.63941 0.198438,0.727605 v 0.08819 q 0,0.08819 -0.08819,0.08819 l 0.176389,1.146529 -0.0441,0.08819 q 0.0441,0.06615 0.0441,0.176389 h -0.0441 q 0.02205,0.08819 0.08819,0.551216 -0.0441,0.08819 -0.0441,0.132292 l 0.08819,0.463021 q -0.0441,0.0882 -0.0441,0.132292 0.110243,0.02205 0.463021,1.344967 0,0.352778 0.0441,0.507118 l -0.463021,0.286633 q -0.727605,-0.17639 -0.727605,-0.727605 0,-0.220487 -0.08819,-0.33073 v -0.396875 q 0,-0.859897 -0.132292,-1.058335 0,-0.0441 0.0441,-0.0441 -0.06615,-0.771702 -0.132292,-1.12448 0,-0.0441 0.0441,-0.0441 -0.08819,-0.63941 -0.198438,-2.315106 h 0.0441 l -0.0441,-0.110243 v -0.352755 q 0,-1.146529 0.15434,-1.874134 l -0.0441,-0.08819 q 0.08819,-2.116669 0.176389,-2.116669 0,-0.06614 -0.0441,-0.06614 l 0.308681,-2.667885 q -0.220487,-2.138718 -0.727605,-3.175003 -0.529167,-1.014237 -0.683508,-1.45521 0.440973,-0.418924 0.551216,-0.418924 z m 2.094621,1.146529 q 0.573264,0.396875 0.727605,0.948091 0.30868,0.749654 0.352778,1.322918 l -0.0441,0.08819 0.08819,0.440972 q 0,0.06615 -0.0441,0.06615 l 0.0441,0.220486 v 0.440973 q 0,0.06615 -0.0441,0.06615 l 0.0441,0.08819 v 0.573264 q 0,0.198438 -0.08819,0.374827 0,0.0441 0.0441,0.0441 -0.132292,1.543404 -0.48507,1.543404 l -0.0441,0.08819 q -0.198437,0 -0.418924,-0.352778 -0.15434,0 -0.220486,-0.463021 0.176389,-0.771703 0.176389,-1.080384 v -0.507118 q 0,-0.595313 -0.08819,-0.8158 0,-0.0441 0.0441,-0.0441 0,-0.440972 -0.63941,-2.645836 v -0.0441 q 0.330729,-0.02205 0.330729,-0.264584 z m -3.219101,0.903994 h 0.0441 q 0.595314,0 0.948092,1.411112 0.0441,0.176389 0.0441,0.352778 0,0.0441 -0.0441,0.0441 0.176389,0.507118 0.176389,0.63941 -0.0441,0.08819 -0.0441,0.132292 0,0.0441 0.0441,0.0441 l -0.0441,0.242535 v 0.48507 q 0,0.110243 -0.132291,0.110243 l 0.0441,0.08819 v 0.0441 l -0.0441,0.308681 0.08819,0.0441 q -0.110243,0.374827 -0.176389,0.374827 0,0.02205 0.0441,0.176389 l -0.264583,1.036286 0.0441,0.08819 v 0.110243 q 0,0.08819 -0.110243,0.08819 h -0.0441 l 0.0441,-0.08819 h -0.0441 l -0.220487,0.132292 h -0.08819 Q 18.0452,49.84026 17.912908,49.84026 17.780616,49.597725 17.780616,49.443384 l 0.0441,-0.08819 -0.0441,-0.08819 q 0.132292,-0.110243 0.33073,-1.499307 0,-0.06615 -0.0441,-0.06615 l 0.0441,-0.529167 v -0.418924 l -0.0441,-0.220486 h 0.0441 q 0,-0.573265 -0.551216,-1.807988 0.08819,0 0.463021,-0.418924 z m 7.58473,0.815799 q 0.0441,0.08819 0.0441,0.132292 l -0.0441,0.242535 q 0.33073,0.48507 0.396875,0.48507 l 0.08819,-0.0441 q 0.198438,0.06615 0.198438,0.132291 l 0.08819,-0.0441 h 0.0441 q 0.0441,0 0.0441,0.0441 0.08819,-0.0441 0.48507,-0.08819 v 0.0441 q 0.440972,0 0.63941,-0.948091 v -0.132292 h -0.08819 l -0.264584,-0.0441 -0.242535,0.08819 q -0.374827,-0.0441 -0.617362,-0.0441 h -0.374827 q -0.08819,0 -0.176389,-0.0441 -0.132291,0 -0.220486,0.220486 z m 2.57969,3.858511 h -0.595313 l -0.132292,0.08819 -0.220486,-0.0441 q -0.0441,0.132292 -0.08819,0.132292 l 0.0441,0.463021 q -0.0441,0.463022 -0.0441,0.551216 0.08819,0.06615 0.396876,0.132292 0.374827,0 1.234723,-0.374827 0.220487,-0.396875 0.220487,-0.771702 -0.0882,-0.264583 -0.176389,-0.264583 h -0.132292 q -0.06615,0 -0.507119,0.08819 z m -3.770316,0.374827 q 0.0441,0.727605 0.463021,0.727605 0,0.06615 0.903994,0.176389 0.110243,0 0.264584,-0.132292 0,0.0441 0.0441,0.0441 0.02205,-0.08819 0.08819,-0.08819 l -0.0441,-0.33073 v -0.595313 l -0.220486,-0.0441 h -1.080383 q -0.418924,0 -0.418924,0.242535 z m -2.866322,1.12448 q 0.286632,0 0.286632,0.264584 0.15434,0 0.264583,0.595313 -0.0441,0.308681 -0.0441,0.507118 v 0.08819 q 0,0.110243 0.0441,0.176389 l -0.08819,0.33073 q 0,0.0441 0.0441,0.0441 -0.08819,0.551216 -0.176389,0.903994 0.0441,0.08819 0.0441,0.176389 v 0.0441 q 0,0.242535 -0.08819,0.242535 l 0.0441,0.08819 q 0,0.0441 -0.0441,0.0441 l 0.0441,0.08819 q 0,0.08819 -0.0441,0.8158 0,0.0441 0.0441,0.132292 l -0.08819,0.771702 q 0.132292,0.220486 0.132292,0.595313 0,0.374827 -0.463021,0.507118 -0.595313,-0.396875 -0.595313,-0.683507 0,-0.0441 0.0441,-0.0441 l -0.0441,-0.242535 V 55.35241 q 0,-0.176389 -0.0441,-0.418924 0.0441,-0.08819 0.0441,-0.176389 0,-0.0441 -0.0441,-0.0441 l 0.0441,-0.242535 q 0,-0.198438 -0.0441,-0.440973 0.0441,-0.286632 0.08819,-0.286632 l -0.0441,-0.08819 q 0,-0.0441 0.0441,-0.0441 l -0.0441,-0.08819 q 0,-0.0441 0.0441,-0.0441 l -0.0441,-0.08819 v -0.08819 q 0,-0.176389 0.110243,-0.595313 l -0.06615,-0.08819 q 0.110243,-0.154341 0.110243,-0.264584 0,-0.132292 -0.0441,-0.374827 0.176389,-1.367015 0.308681,-1.367015 0.02205,0.08819 0.08819,0.08819 0.110244,-0.220486 0.17639,-0.220486 z m -3.042712,0.463021 h 0.0441 q 0.374827,0.352779 0.374827,0.903994 0,0.08819 -0.132292,1.168578 l 0.0441,0.110243 -0.0882,0.352778 q 0.0441,0.08819 0.0441,0.176389 v 0.198438 q 0,0.0441 -0.0441,0.0441 l 0.0441,0.08819 q 0,0.0441 -0.0441,0.0441 l 0.0441,0.308681 -0.0441,0.286632 q 0.0441,0.220487 0.0441,0.440973 v 0.132292 q 0,0.0441 -0.0441,0.0441 l 0.0441,0.110243 v 0.308681 q 0,0.661459 0.132292,0.992189 0,0.551215 -0.374827,0.683507 l -0.0441,-0.08819 -0.08819,0.0441 q -0.198438,-0.08819 -0.220487,-0.176389 l -0.08819,0.0441 q -0.176389,0 -0.33073,-0.859897 0,-0.0441 0.0441,-0.0441 -0.08819,-0.881945 -0.08819,-2.006426 0.02205,-0.507118 0.08819,-0.507118 l -0.0441,-0.08819 0.0441,-0.220486 q 0,-0.08819 -0.0441,-0.08819 0,-1.631598 0.374827,-2.138717 z m 9.988031,0.595314 q 0.97014,0.198437 0.97014,0.485069 1.080383,0.837849 1.080383,0.903994 0,0.06615 0.418924,0.374827 0.0441,0.06615 0.0441,0.176389 -0.176389,0.198438 -0.176389,0.220487 l 0.0441,0.242535 q -0.06615,0.08819 -0.727605,0.132291 -1.389064,-0.948091 -2.138718,-1.719793 v -0.463021 q 0.176389,-0.308681 0.220486,-0.308681 h 0.0441 q 0.0441,0 0.0441,0.0441 z m -3.902608,0.176389 0.198438,0.0441 0.220486,-0.0441 q 0.286632,0.220486 0.352778,0.595313 -0.15434,0.418924 -1.12448,1.080383 0,0.06615 -0.286632,0.132292 0,0.396875 -1.036286,0.551215 -0.110243,-0.330729 -0.176389,-0.330729 0,-0.727605 0.903994,-1.389064 0.08819,-0.198438 0.264583,-0.198438 v 0.0441 q 0.573265,-0.352779 0.683508,-0.48507 z m 2.050523,2.535592 h 0.08819 q 0.374827,0.33073 0.374827,0.683508 v 0.0882 q 0,0.132291 -0.0441,0.132291 l 0.0441,0.242535 v 0.727605 l -0.0441,0.08819 q 0.352778,0 0.352778,0.0441 l 0.08819,-0.0441 h 0.418924 q 0.08819,0 0.176389,0.0441 l 0.08819,-0.0441 0.176389,0.0441 q 0.08819,-0.0441 0.198438,-0.0441 0.418924,0.264583 0.440973,0.264583 v 0.08819 l -0.0882,-0.0441 0.0441,0.330729 v 0.132292 l -0.396875,0.440973 -0.242535,-0.0441 h -0.48507 l -0.551216,0.0441 v -0.0441 q -0.374827,0 -0.374827,0.551216 v 0.507119 h 0.0441 q 0.573264,-0.0441 0.595313,-0.0441 0,0.0441 0.0441,0.0441 0.02205,-0.0882 0.08819,-0.0882 h 0.110243 q 0.110243,0 0.264583,0.0882 0.02205,-0.0882 0.08819,-0.0882 v 0.0441 l 0.08819,-0.0441 q 0.08819,0.0441 0.132292,0.0441 0.0441,0 0.0441,-0.0441 0.418924,0.0441 0.418924,0.0882 l 0.08819,-0.0441 h 0.0441 q 0.110244,0 0.176389,0.0441 0.08819,-0.0441 0.132292,-0.0441 v 0.0441 q 0.110243,-0.0441 0.418924,-0.0882 0.308681,0 0.551216,0.396876 0,0.0441 -0.0441,0.0441 0.08819,0.15434 0.08819,0.264584 v 0.110243 q 0,0.08819 -0.374826,0.308681 0,0.242535 -0.683508,0.264583 l -0.396875,-0.08819 -0.08819,0.0441 q -0.463021,-0.0441 -0.463021,-0.08819 -0.0441,0 -0.0441,0.0441 -0.418924,-0.0441 -0.551215,-0.08819 -0.08819,0.0441 -0.683508,0.08819 -0.15434,-0.08819 -0.352778,-0.08819 h -0.0441 q -0.661459,0.08819 -0.727605,0.08819 -0.132292,0 -0.308681,-0.0441 -0.176389,0.0441 -0.374827,0.0441 h -0.132292 q -0.0441,0 -0.0441,-0.0441 -0.0882,0.0441 -0.132292,0.0441 l -0.198438,-0.0441 -0.08819,0.0441 q -0.0441,0 -0.0441,-0.0441 l -0.727605,0.176389 q 0,-0.08819 -0.08819,-0.08819 -0.15434,0.08819 -0.352778,0.08819 l -0.462991,-0.352778 q 0,-0.727605 0.595313,-1.036285 h 0.0441 l 0.132292,0.08819 h 0.132292 l 0.242535,-0.0441 q 0,0.08819 0.08819,0.08819 0.0441,0 0.0441,-0.0441 l 0.30868,0.0441 h 0.132292 l 0.242535,-0.0441 v 0.0441 q 0.154341,-0.08819 0.352778,-0.08819 l 0.33073,0.0441 q 0.08819,-0.0441 0.132292,-0.0441 0.06615,0.0441 0.176389,0.0441 0,-0.0441 0.0441,-0.0441 l -0.0441,-0.0882 v -0.06615 q 0,-0.176389 0.08819,-0.352778 -0.0441,-0.242535 -0.0441,-0.418924 v -0.0441 l -0.220486,-0.0441 q -0.198438,0 -0.374827,0.0441 -1.411113,-0.06615 -1.411113,-0.396875 0,-0.705557 0.463022,-0.903994 h 0.352778 q 0.242535,0 0.242535,0.08819 l 0.308681,-0.0441 h 0.132291 q 0.110244,0 0.198438,0.0441 0.06615,-0.0441 0.176389,-0.0441 0.08819,0.0441 0.132292,0.0441 0,-0.0441 0.0441,-0.0441 0,-0.0441 -0.0441,-0.0441 l 0.0441,-0.286633 q 0,-1.543404 0.374827,-1.543404 z"
       id="text1"
       style="font-size:22.5778px;line-height:1.5;font-family:'Chong Xi Small Seal';-inkscape-font-specification:'Chong Xi Small Seal';text-align:center;letter-spacing:0px;word-spacing:0.264583px;text-anchor:middle;fill:#ffffff;fill-opacity:1;stroke-width:0.265"
       aria-label="漢" />
  </g>
</svg>
