<?xml version="1.0" encoding="UTF-8" standalone="no"?>
<!-- Created with Inkscape (http://www.inkscape.org/) -->

<svg
   width="22.463228mm"
   height="22.607779mm"
   viewBox="0 0 22.463228 22.607779"
   version="1.1"
   id="svg1"
   xmlns="http://www.w3.org/2000/svg"
   xmlns:svg="http://www.w3.org/2000/svg">
  <defs
     id="defs1" />
  <g
     id="layer1"
     transform="translate(-13.002307,-67.180184)">
    <path
       id="rect1-1-1-7-2-3"
       style="fill:#ffffff;fill-opacity:1;stroke:none;stroke-width:0.148114;stroke-dasharray:none;stroke-opacity:1"
       d="m 28.096476,67.180396 c -0.08365,-0.0026 -0.163421,0.01771 -0.238228,0.07906 -0.26887,-0.03389 -0.638604,-0.131611 -0.992704,-0.03772 -0.35246,-0.117586 -0.63589,0.09845 -1.00149,0.06925 -0.47684,-0.02505 -0.939399,0.0067 -1.410249,-0.09095 -0.40656,-0.08527 -0.668043,0.205494 -1.087273,0.02274 -0.65659,-0.07516 -1.315465,0.254894 -1.950785,-0.02481 -0.36901,-0.02791 -0.674467,0.187876 -1.022677,0.0124 -0.35222,0.251195 -0.658213,-0.06652 -1.023193,-0.0155 -0.34888,0.07456 -0.712071,0.207417 -1.061951,0.02946 -0.17575,-0.01641 -0.351673,-0.02648 -0.528133,-0.03101 h -5.16e-4 c -0.78141,0.04629 -1.537877,0.248235 -2.257227,0.697631 -0.61789,-0.02215 -0.850342,0.859845 -1.387512,1.154969 -0.5685,0.299945 -0.536928,1.206024 -0.837158,1.706356 -0.18573,0.56539 -0.201523,1.031682 -0.295073,1.607653 0.009,0.36047 0.06874,0.736879 0.114722,1.069702 -0.15736,0.313856 -0.06371,0.682915 0.04909,0.959632 -0.37431,0.296081 0.256456,0.700722 -0.127124,0.967383 -0.005,0.365339 0.170342,0.765058 -0.02584,1.087272 0.16549,0.342875 0.02487,0.698591 0.113172,1.000455 0.008,0.397612 0.0031,0.822317 -0.09095,1.210779 0.0918,0.442765 -0.0022,0.910087 0.130741,1.358057 -0.15035,0.288473 -0.180991,0.677667 -0.05891,0.974617 0.0845,0.373346 -0.115416,0.634872 0.07441,1.047482 0.0212,0.333535 -0.164982,0.696899 -0.02842,0.987536 0.13586,0.337082 -0.374337,0.742169 -0.0052,1.030428 -0.26706,0.382375 0.217521,0.706761 -0.01292,1.088823 -0.0346,0.782082 0.313857,1.727331 0.691947,2.427242 0.56055,0.639621 1.055583,1.399686 1.903243,1.605587 0.71659,0.500188 1.579207,0.447702 2.349727,0.552421 0.29189,-0.251273 0.676724,0.14936 1.008724,-0.06666 0.3172,0.0396 0.651433,0.173901 1.000973,0.110588 0.39107,0.0076 0.769865,-0.295553 1.141015,-0.01964 0.29676,-0.18618 0.676946,0.03424 1.002006,-0.09663 0.48988,0.0098 0.973681,-0.08996 1.446941,0.09043 0.36339,0.110175 0.711294,-0.270019 1.066084,-0.02945 0.36107,-0.158301 0.691448,0.0243 1.065568,0.02894 0.37137,0.0256 0.701871,-0.09735 1.079521,-0.02429 0.47059,-0.07689 0.946409,0.201579 1.407149,-0.04289 0.37296,0.123856 0.705822,0.03671 1.047482,-0.01602 0.34646,0.167781 0.738599,-0.150944 1.090889,0.12299 0.67244,-0.134406 1.281688,-0.05771 1.894458,-0.387574 1.04026,-0.131242 1.491955,-1.200131 2.265495,-1.731677 0.54233,-0.540251 0.392826,-1.275276 0.700216,-1.853117 0.11823,-0.367886 0.08409,-0.959655 0.05219,-1.441772 -0.0159,-0.353149 0.152923,-0.709112 -0.01964,-1.05575 0.25183,-0.314233 -0.214049,-0.626076 0.09715,-0.936377 -0.1767,-0.376821 0.0915,-0.790642 -0.0677,-1.073836 -0.19003,-0.328922 0.111875,-0.742117 0.0057,-1.027844 -0.2293,-0.388834 0.169641,-0.779025 0.02377,-1.166337 -0.0106,-0.375559 -0.0058,-0.720039 0.07751,-1.087789 -0.0641,-0.324842 -0.07003,-0.686603 -0.06563,-1.019059 0.0872,-0.365732 -0.181212,-0.739007 0.0052,-1.050066 0.069,-0.375296 -0.210354,-0.730255 0.03101,-1.051098 -0.0556,-0.336224 -0.01319,-0.667715 -0.0088,-1.023194 0.10831,-0.510802 -0.328677,-1.007596 -0.03411,-1.492932 0.0913,-0.520134 -0.22589,-1.092022 -0.12609,-1.654162 -0.21664,-0.780669 -0.740677,-1.493842 -1.273307,-2.1177 -0.70119,-0.587991 -1.287473,-1.069234 -2.163693,-1.283126 -0.60158,-0.257883 -1.170982,0.05307 -1.743562,-0.09974 -0.40352,-0.07265 -0.797952,-0.04915 -1.188042,0.101286 -0.268185,0.06887 -0.551066,-0.144778 -0.802018,-0.152445 z m -3.064412,1.381311 c 0.03134,0 0.04703,0.02327 0.04703,0.07028 l 0.09405,-0.07028 h 0.141077 c 0.156688,0.09401 0.234611,0.16435 0.234611,0.211356 l -0.04651,0.09405 c 0.125351,0 0.211376,0.27428 0.258382,0.822689 v 0.329179 c -0.06267,0.07834 -0.117839,0.242809 -0.164847,0.49351 0.04701,0.125351 0.102179,0.234649 0.164847,0.328662 l 0.09405,-0.04651 c 0.03134,0 0.0784,0.01517 0.141076,0.04651 0.391722,-0.01567 0.587561,-0.04653 0.587561,-0.09353 0.454398,0.06267 0.822287,0.09353 1.104326,0.09353 0.06267,-0.03134 0.109736,-0.04651 0.141076,-0.04651 v -0.42323 C 27.672104,69.619311 27.593665,69.180568 27.593665,69.055216 V 68.91414 c 0.156688,-0.235033 0.250816,-0.352433 0.282153,-0.352433 h 0.634586 l -0.04703,0.117305 c 0.219364,0.172357 0.329179,0.41526 0.329179,0.728638 -0.03134,0 -0.04703,0.01568 -0.04703,0.04702 0.047,0 0.10165,0.04706 0.164331,0.141077 v 0.04703 c 0,0.03134 -0.02327,0.04702 -0.07028,0.04702 l 0.352434,1.010791 h 0.141076 l 0.141077,-0.09405 h 0.04702 c 0.07835,0.06267 0.148682,0.09405 0.211357,0.09405 0.188027,0 0.57212,-0.01568 1.151868,-0.04702 0.642422,0 0.963765,0.195839 0.963765,0.587561 v 0.04703 c 0,0.203695 -0.242903,0.43091 -0.728637,0.681612 h -0.869715 c -0.172357,0 -0.399573,0.01569 -0.681612,0.04703 h -0.376204 c -0.03134,0.219364 -0.06272,0.328662 -0.09405,0.328662 l 0.09405,0.188102 c -0.03134,0.141019 -0.09409,0.211874 -0.188103,0.211874 l 0.04703,0.09353 v 0.04703 c -0.125351,0.109682 -0.242751,0.368274 -0.352433,0.775664 -0.219364,0.250701 -0.540706,0.423267 -0.963766,0.517281 -0.109681,0.109682 -0.188121,0.227082 -0.235128,0.352433 l 0.04703,0.09405 v 0.376205 l 0.329179,0.07028 c 0.877456,0 1.316199,-0.08602 1.316199,-0.258382 0,-0.235032 0.156878,-0.407598 0.470255,-0.517281 0.517072,0.109683 0.775663,0.282249 0.775663,0.517281 0.04701,0 0.08597,0.164464 0.117306,0.49351 0,0.03134 -0.01569,0.0784 -0.04703,0.141077 0.03134,0.172357 0.04703,0.321134 0.04703,0.446484 v 0.188102 c 0,0.06267 -0.01569,0.125425 -0.04703,0.188103 0.03134,0.06267 0.04703,0.125425 0.04703,0.188102 v 0.211357 c 0,0.06267 -0.03896,0.09405 -0.117306,0.09405 l 0.07028,0.09405 v 0.04703 L 30.39091,77.04646 c 0,0.03134 0.01568,0.04703 0.04702,0.04703 0,0.454396 -0.09413,0.681612 -0.282153,0.681612 l 0.04703,0.234611 c -0.04701,0.03134 -0.109759,0.04703 -0.188103,0.04703 l 0.04703,0.09405 v 0.04703 c -0.219364,0.125352 -0.329179,0.25844 -0.329179,0.399459 H 29.61525 c -0.06267,0 -0.09405,-0.03086 -0.09405,-0.09353 -0.313376,0.156688 -1.002608,0.352528 -2.06809,0.587561 0,0.09401 -0.01569,0.14056 -0.04703,0.14056 l 0.04703,0.09405 v 0.376205 c 0,0.250702 0.140674,0.556356 0.422713,0.91674 -0.03134,0 -0.04703,0.01568 -0.04703,0.04702 0.04701,0 0.133549,0.05465 0.258899,0.164331 0.454397,0.42306 1.112253,0.901281 1.97404,1.434021 l 0.681612,0.49351 c 0,-0.03134 0.01569,-0.04703 0.04703,-0.04703 0.485734,0.26637 0.728637,0.540649 0.728637,0.822689 h -0.04703 l 0.04703,0.09353 v 0.09405 c -0.203694,0.329047 -0.43091,0.494027 -0.681612,0.494027 h -0.04703 c -0.188027,0 -1.057927,-0.579934 -2.609143,-1.739429 -0.736436,-0.626755 -1.237415,-1.034122 -1.503785,-1.222148 -0.313377,0.595417 -1.01071,1.292752 -2.091862,2.091862 -0.344714,0.28204 -0.634682,0.47788 -0.869714,0.587561 0,0.07834 -0.258591,0.20333 -0.775663,0.375688 h -0.282153 v -0.04703 c 0,-0.03134 0.01569,-0.04651 0.04703,-0.04651 0,-0.03134 -0.101712,-0.164945 -0.305408,-0.399976 l 0.07028,-0.188102 -0.07028,-0.09353 c 0.313378,-0.40739 0.916585,-0.877509 1.809709,-1.41025 l 0.09405,0.04703 c 0,-0.109682 0.337031,-0.415336 1.010791,-0.91674 0,-0.04701 0.227216,-0.289909 0.681612,-0.728637 0,-0.203695 0.07844,-0.39195 0.235128,-0.564307 v -0.822689 c 0,-0.03134 -0.06275,-0.101677 -0.188102,-0.211356 -0.06267,0.03134 -0.109737,0.04702 -0.141077,0.04702 -0.109682,-0.06267 -0.211395,-0.09405 -0.305408,-0.09405 h -0.282153 l -0.329179,0.04703 c 0,-0.04701 -0.148776,-0.109759 -0.446484,-0.188103 l -0.09405,0.04703 C 23.645375,78.346643 23.24561,77.641725 23.24561,76.670256 v -0.352434 c 0,-1.09682 0.125502,-1.645377 0.376204,-1.645377 l 0.141077,-0.09405 h 0.235127 c 0.172358,0.09401 0.321134,0.321228 0.446485,0.681612 h 0.540535 l 0.141077,-0.09405 h 0.587561 c 0.03134,0 0.04703,0.01569 0.04703,0.04703 0.344715,0 0.516765,-0.08603 0.516765,-0.258382 l 0.04702,-0.564307 c -0.84612,-0.266377 -1.308134,-0.556337 -1.386478,-0.869714 -0.329046,-0.329046 -0.49351,-0.752101 -0.49351,-1.269173 h -0.04703 l -0.282153,0.04703 c -0.03134,0 -0.133052,-0.01569 -0.305408,-0.04703 -0.01567,0 -0.188233,0.03138 -0.517281,0.09405 v -0.04703 c -0.125351,0.06267 -0.258439,0.09405 -0.399459,0.09405 h -0.09405 c -0.297707,-0.203696 -0.446484,-0.415222 -0.446484,-0.634586 h -0.04703 c 0,-0.470066 0.227216,-0.704867 0.681612,-0.704867 0,-0.04701 0.01569,-0.0708 0.04703,-0.0708 l 0.09405,0.0708 0.305408,-0.0708 h 0.04703 c 0.03134,0 0.04703,0.02379 0.04703,0.0708 0.219364,-0.04701 0.360555,-0.102172 0.42323,-0.164847 0.03134,0.109682 0.0703,0.164847 0.117305,0.164847 l 0.235128,-0.164847 h 0.04703 l 0.09405,0.04702 c 0.01567,-0.282039 0.04704,-0.422713 0.09405,-0.422713 0,-0.03134 -0.01569,-0.04703 -0.04703,-0.04703 0,-0.04701 0.03138,-0.227159 0.09405,-0.540535 l -0.04702,-0.09405 c 0.03134,-0.282039 0.06272,-0.42323 0.09405,-0.42323 l -0.04703,-0.117306 c 0.04701,-0.07834 0.195783,-0.321248 0.446485,-0.728637 z m -6.251815,0.634586 h 0.09405 l 0.587561,0.352433 c 0.344715,0.611086 0.516764,1.026555 0.516764,1.245919 0.203696,0.454397 0.368159,0.98675 0.49351,1.597835 -0.03134,0.188027 -0.04703,0.321115 -0.04703,0.399459 0,0.01567 0.01569,0.109801 0.04703,0.282154 l -0.04703,0.09405 c 0.09401,0.172357 0.141077,0.336822 0.141077,0.49351 v 0.04703 c 0,0.03134 -0.01569,0.04703 -0.04703,0.04703 0.06267,0.297708 0.109737,0.799203 0.141077,1.504301 h -0.04703 c 0,0.03134 0.01569,0.04702 0.04703,0.04702 -0.06267,0.313377 -0.09405,0.603344 -0.09405,0.869715 v 0.188102 c 0,0.07834 -0.01569,0.141095 -0.04703,0.188102 l 0.04703,0.117306 c 0,0.313377 -0.09361,0.697471 -0.281637,1.151867 -0.06267,0.626755 -0.09405,1.096357 -0.09405,1.409733 h -0.04703 c 0,0.03134 0.01569,0.04703 0.04703,0.04703 -0.02987,0.403228 -0.06057,0.615168 -0.09043,0.63407 -2.45e-4,1.29e-4 -0.0013,4.13e-4 -0.0016,5.16e-4 h -5.17e-4 c -2.45e-4,5.2e-5 -0.0013,-2.5e-5 -0.0016,0 l 0.04703,0.09405 v 0.09405 l -0.04703,0.282153 c 0,0.03134 0.01569,0.04703 0.04703,0.04703 l -0.04703,0.352433 v 0.235128 l 0.04703,0.329178 c -0.06267,0.01567 -0.09405,0.04705 -0.09405,0.09405 0.06267,0.141019 0.09405,0.242732 0.09405,0.305407 h -0.04703 l 0.04703,0.09405 c -0.06267,0.109682 -0.09405,0.20381 -0.09405,0.282154 v 0.258382 h 0.09405 c 0,0.04701 -0.05516,0.09407 -0.164848,0.141076 l 0.0708,0.09405 c 0,0.03134 -0.02379,0.04702 -0.0708,0.04702 0.07834,0.454397 0.149198,0.712988 0.211874,0.775663 v 0.09405 c 0,0.06267 -0.03138,0.09353 -0.09405,0.09353 l 0.188102,1.222664 -0.04703,0.09353 c 0.03134,0.04701 0.04703,0.109764 0.04703,0.188102 h -0.04703 c 0.01567,0.06267 0.04705,0.258513 0.09405,0.587561 -0.03134,0.06267 -0.04703,0.109736 -0.04703,0.141076 l 0.09405,0.49351 c -0.03134,0.06268 -0.04703,0.109744 -0.04703,0.141077 0.07834,0.01567 0.242808,0.493894 0.493509,1.434021 0,0.250701 0.01569,0.430854 0.04703,0.540536 l -0.49351,0.305407 c -0.517072,-0.125351 -0.775663,-0.383942 -0.775663,-0.775663 0,-0.156689 -0.03138,-0.274089 -0.09405,-0.352433 V 87.2231 c 0,-0.611086 -0.04706,-0.987077 -0.141077,-1.128097 0,-0.03134 0.01569,-0.04703 0.04703,-0.04703 -0.04701,-0.54841 -0.09407,-0.947675 -0.141077,-1.198377 0,-0.03134 0.01569,-0.04703 0.04703,-0.04703 -0.06267,-0.454396 -0.13301,-1.277234 -0.211357,-2.468067 h 0.04702 l -0.04702,-0.117305 v -0.376205 c 0,-0.81478 0.05465,-1.480738 0.164331,-1.997811 l -0.04703,-0.09405 c 0.06194,-1.486582 0.12461,-2.238772 0.186552,-2.256193 h 5.17e-4 c 2.45e-4,-2.3e-5 7.89e-4,0 0.001,0 0,-0.047 -0.01569,-0.0708 -0.04703,-0.0708 l 0.329179,-2.843754 c -0.156689,-1.519879 -0.415281,-2.647855 -0.775663,-3.38429 -0.376053,-0.720767 -0.618956,-1.237949 -0.728638,-1.551326 0.313377,-0.297708 0.509217,-0.446485 0.587561,-0.446485 z m 2.326473,1.222148 c 0.40739,0.282039 0.665981,0.619069 0.775663,1.010791 0.219364,0.532741 0.344866,1.002344 0.376205,1.409733 l -0.04703,0.09405 0.09405,0.470255 c 0,0.04701 -0.01569,0.07028 -0.04702,0.07028 l 0.04702,0.235128 v 0.470256 c 0,0.04701 -0.01569,0.07028 -0.04702,0.07028 l 0.04702,0.09405 v 0.611332 c 0,0.14102 -0.03138,0.274108 -0.09405,0.399459 0,0.03134 0.01569,0.04703 0.04703,0.04703 -0.09401,1.09682 -0.266579,1.645378 -0.517281,1.645378 l -0.04651,0.09405 c -0.14102,0 -0.290313,-0.125503 -0.447001,-0.376204 -0.109682,0 -0.187605,-0.164465 -0.234611,-0.49351 0.125351,-0.548411 0.187585,-0.932504 0.187585,-1.151868 v -0.540535 c 0,-0.423059 -0.03138,-0.713026 -0.09405,-0.869715 0,-0.03134 0.01569,-0.04703 0.04703,-0.04703 0,-0.313377 -0.227216,-1.253615 -0.681613,-2.8205 v -0.04651 c 0.235033,-0.01567 0.35295,-0.1098 0.35295,-0.282153 z m -3.431315,0.963765 h 0.04703 c 0.42306,0 0.760089,0.500978 1.010791,1.503784 0.03134,0.125351 0.04703,0.250854 0.04703,0.376205 0,0.03134 -0.01569,0.04702 -0.04703,0.04702 0.125351,0.360384 0.188103,0.587599 0.188103,0.681613 -0.03134,0.06267 -0.04703,0.109736 -0.04703,0.141076 0,0.03134 0.01569,0.04703 0.04703,0.04703 l -0.04703,0.258382 v 0.517281 c 0,0.07834 -0.04706,0.117305 -0.141077,0.117305 l 0.04703,0.09405 v 0.04703 l -0.04703,0.329179 0.09405,0.04703 c -0.07834,0.26637 -0.141097,0.399458 -0.188103,0.399458 0,0.01567 0.01569,0.07842 0.04703,0.188103 l -0.282153,1.104325 0.04703,0.09405 v 0.117822 c 0,0.06267 -0.03896,0.09405 -0.117305,0.09405 h -0.04703 l 0.04703,-0.09405 h -0.04703 l -0.235128,0.141077 h -0.09405 c -0.17236,-0.235033 -0.305445,-0.35295 -0.399459,-0.35295 -0.09401,-0.172358 -0.141076,-0.313031 -0.141076,-0.422713 l 0.04703,-0.09405 -0.04703,-0.09405 c 0.09401,-0.07834 0.211413,-0.611215 0.352433,-1.598353 0,-0.04701 -0.01569,-0.07028 -0.04703,-0.07028 l 0.04703,-0.564307 v -0.446484 l -0.04703,-0.235128 h 0.04703 c 0,-0.407391 -0.19584,-1.049559 -0.587561,-1.927014 0.06267,0 0.227138,-0.148777 0.49351,-0.446485 z m 8.320422,0.634587 c -0.09401,0 -0.172452,0.07792 -0.235128,0.234611 0.03134,0.06267 0.04703,0.109736 0.04703,0.141076 l -0.04703,0.258899 c 0.235034,0.344715 0.375708,0.516765 0.422714,0.516765 l 0.09405,-0.04703 c 0.14102,0.04701 0.211873,0.09407 0.211873,0.141077 l 0.09405,-0.04703 h 0.04703 c 0.03134,0 0.04703,0.01569 0.04703,0.04703 0.06267,-0.03134 0.234723,-0.06272 0.516765,-0.09405 v 0.04703 c 0.313376,0 0.540592,-0.33703 0.681612,-1.010791 v -0.14056 h -0.09405 l -0.282154,-0.04702 -0.258382,0.09353 c -0.26637,-0.03134 -0.485483,-0.04651 -0.657841,-0.04651 h -0.399459 c -0.06267,0 -0.125424,-0.01568 -0.188102,-0.04702 z m 3.055111,4.254004 c -0.04701,0 -0.227159,0.03138 -0.540536,0.09405 h -0.634586 l -0.141077,0.09405 -0.235128,-0.04703 c -0.03134,0.09401 -0.0622,0.141077 -0.09353,0.141077 l 0.04703,0.49351 c -0.03134,0.329046 -0.04703,0.524886 -0.04703,0.587561 0.06267,0.04701 0.203347,0.09407 0.422713,0.141077 0.266371,0 0.705114,-0.133605 1.316199,-0.399976 0.156689,-0.282039 0.235128,-0.555801 0.235128,-0.822172 -0.06268,-0.188025 -0.125432,-0.282153 -0.188102,-0.282153 z m -4.112927,0.235127 c -0.297708,0 -0.446485,0.08603 -0.446485,0.258383 0.03134,0.517072 0.195805,0.775663 0.49351,0.775663 0,0.04701 0.321343,0.109758 0.963766,0.188102 0.07834,0 0.171954,-0.04706 0.281636,-0.141077 0,0.03134 0.01569,0.04703 0.04703,0.04703 0.01567,-0.06267 0.04705,-0.09405 0.09405,-0.09405 L 26.32449,77.187542 V 76.55295 l -0.234611,-0.04703 z m -3.502112,1.456759 c 0.203695,0 0.305408,0.09413 0.305408,0.282153 0.109682,0 0.203809,0.211528 0.282153,0.634587 -0.03134,0.219364 -0.04703,0.399516 -0.04703,0.540535 v 0.09405 c 0,0.07834 0.01569,0.141095 0.04703,0.188102 l -0.09405,0.352433 c 0,0.03134 0.01568,0.04703 0.04702,0.04703 -0.06267,0.391721 -0.125425,0.713063 -0.188102,0.963765 0.03134,0.06267 0.04703,0.125425 0.04703,0.188102 v 0.04703 c 0,0.172357 -0.03138,0.258382 -0.09405,0.258382 l 0.04702,0.09405 c 0,0.03134 -0.01568,0.04703 -0.04702,0.04703 l 0.04702,0.09405 c 0,0.06267 -0.01568,0.352639 -0.04702,0.869714 0,0.03134 0.01568,0.0784 0.04702,0.141077 l -0.09353,0.822172 c 0.09401,0.156689 0.14056,0.368216 0.14056,0.634586 0,0.266371 -0.164465,0.447041 -0.49351,0.541053 -0.423059,-0.282039 -0.634587,-0.524943 -0.634587,-0.728638 0,-0.03134 0.01569,-0.04703 0.04703,-0.04703 l -0.04703,-0.258898 v -0.610816 c 0,-0.125351 -0.01569,-0.274127 -0.04703,-0.446484 0.03134,-0.06267 0.04703,-0.125425 0.04703,-0.188103 0,-0.03134 -0.01569,-0.04702 -0.04703,-0.04702 l 0.04703,-0.258382 c 0,-0.14102 -0.01569,-0.297898 -0.04703,-0.470256 0.03134,-0.203695 0.06272,-0.305407 0.09405,-0.305407 l -0.04703,-0.09405 c 0,-0.03134 0.01569,-0.04702 0.04703,-0.04702 l -0.04703,-0.09405 c 0,-0.03134 0.01569,-0.04703 0.04703,-0.04703 l -0.04703,-0.09405 V 80.9713 c 0,-0.125351 0.03948,-0.336879 0.117822,-0.634587 l -0.0708,-0.09405 c 0.07834,-0.109682 0.117822,-0.203809 0.117822,-0.282153 0,-0.09401 -0.01569,-0.227102 -0.04703,-0.399459 0.125351,-0.971469 0.234649,-1.457275 0.328663,-1.457275 0.01567,0.06267 0.04704,0.09405 0.09405,0.09405 0.07834,-0.156689 0.141095,-0.235128 0.188102,-0.235128 z m -3.243213,0.494027 h 0.04703 c 0.26637,0.250702 0.399458,0.571528 0.399458,0.963248 0,0.06267 -0.04706,0.478143 -0.141076,1.245919 l 0.04703,0.117306 -0.09405,0.376204 c 0.03134,0.06267 0.04703,0.125425 0.04703,0.188102 v 0.211357 c 0,0.03134 -0.01569,0.04703 -0.04703,0.04703 l 0.04703,0.09405 c 0,0.03134 -0.01569,0.04703 -0.04703,0.04703 l 0.04703,0.329179 -0.04703,0.305408 c 0.03134,0.156688 0.04703,0.313567 0.04703,0.470255 v 0.14056 c 0,0.03134 -0.01569,0.04703 -0.04703,0.04703 l 0.04703,0.117822 v 0.329179 c 0,0.470065 0.04706,0.822266 0.141076,1.0573 0,0.39172 -0.133088,0.634624 -0.399458,0.728637 l -0.04703,-0.09405 -0.09405,0.04703 c -0.141019,-0.06267 -0.219459,-0.125425 -0.235128,-0.188102 l -0.09405,0.04702 c -0.125351,0 -0.242751,-0.305138 -0.352433,-0.916223 0,-0.03134 0.01569,-0.04703 0.04703,-0.04703 -0.06267,-0.626754 -0.09405,-1.339777 -0.09405,-2.138888 0.01567,-0.360383 0.04705,-0.540535 0.09405,-0.540535 l -0.04703,-0.09405 0.04703,-0.235127 c 0,-0.06267 -0.01569,-0.09405 -0.04703,-0.09405 0,-1.159495 0.133088,-1.919581 0.399459,-2.279965 z m 10.646895,0.634586 c 0.68943,0.14102 1.034046,0.31307 1.034046,0.516765 0.767774,0.595416 1.151867,0.916759 1.151867,0.963765 0,0.04701 0.148777,0.180102 0.446485,0.399459 0.03134,0.04701 0.04703,0.109758 0.04703,0.188102 -0.121434,0.136613 -0.184307,0.21512 -0.188102,0.234094 -3e-5,2.76e-4 0,7.89e-4 0,0.001 l 0.04703,0.258382 c -0.04701,0.06267 -0.305598,0.109737 -0.775664,0.141077 -0.987138,-0.673761 -1.747222,-1.285071 -2.279964,-1.83348 v -0.49351 c 0.125352,-0.219364 0.203791,-0.329179 0.235128,-0.329179 h 0.04703 c 0.03134,0 0.04703,0.01569 0.04703,0.04703 z m -4.159952,0.187586 0.211356,0.04703 0.235128,-0.04703 c 0.203695,0.156688 0.329198,0.368216 0.376204,0.634586 -0.109681,0.297709 -0.509463,0.681803 -1.198893,1.151868 0,0.04701 -0.101713,0.09407 -0.305408,0.141077 0,0.282038 -0.368406,0.477879 -1.104842,0.587561 -0.07834,-0.235033 -0.141095,-0.352433 -0.188102,-0.352433 0,-0.517072 0.321343,-1.010982 0.963766,-1.481047 0.06267,-0.14102 0.1568,-0.211357 0.282153,-0.211357 v 0.04703 c 0.40739,-0.250702 0.650293,-0.423268 0.728638,-0.517281 z m 2.185396,2.703194 h 0.09405 c 0.266371,0.235033 0.399976,0.477936 0.399976,0.728638 v 0.09405 c 0,0.09401 -0.01569,0.141076 -0.04703,0.141076 l 0.04703,0.258383 v 0.775663 l -0.04703,0.09405 c 0.250701,0 0.375688,0.01569 0.375688,0.04703 l 0.09405,-0.04703 h 0.446484 c 0.06267,0 0.125425,0.01569 0.188102,0.04703 l 0.09405,-0.04703 0.188103,0.04703 c 0.06267,-0.03134 0.13301,-0.04703 0.211356,-0.04703 0.297708,0.188026 0.454586,0.281637 0.470256,0.281637 v 0.09405 l -0.09405,-0.04703 0.04703,0.35295 v 0.14056 l -0.42323,0.470256 -0.258382,-0.04703 H 28.1342 l -0.587561,0.04703 v -0.04703 c -0.266371,0 -0.399459,0.19584 -0.399459,0.587561 v 0.540536 h 0.04703 c 0.40739,-0.03134 0.618917,-0.04703 0.634586,-0.04703 0,0.03134 0.01569,0.04703 0.04703,0.04703 0.01567,-0.06268 0.04705,-0.09405 0.09405,-0.09405 h 0.117305 c 0.07834,0 0.172472,0.03137 0.282154,0.09405 0.01567,-0.06268 0.04705,-0.09405 0.09405,-0.09405 v 0.04703 l 0.09405,-0.04703 c 0.06267,0.03134 0.109737,0.04703 0.141077,0.04703 0.03134,0 0.04703,-0.01569 0.04703,-0.04703 0.297708,0.03134 0.446485,0.06271 0.446485,0.09405 l 0.09405,-0.04703 h 0.04703 c 0.07834,0 0.141096,0.01569 0.188102,0.04703 0.06267,-0.03134 0.109737,-0.04703 0.141077,-0.04703 v 0.04703 c 0.07834,-0.03134 0.227121,-0.06271 0.446485,-0.09405 0.219364,0 0.415203,0.14119 0.587561,0.42323 0,0.03134 -0.01569,0.04703 -0.04703,0.04703 0.06267,0.109682 0.09405,0.203809 0.09405,0.282153 V 87.2231 c 0,0.06267 -0.133089,0.172488 -0.399459,0.329179 0,0.172357 -0.242903,0.266484 -0.728637,0.282153 l -0.42323,-0.09405 -0.09405,0.04703 c -0.326474,-0.0311 -0.490959,-0.06296 -0.493509,-0.09405 -0.03134,0 -0.04703,0.01569 -0.04703,0.04703 -0.297708,-0.03134 -0.493549,-0.06272 -0.587561,-0.09405 -0.06267,0.03134 -0.305576,0.06272 -0.728638,0.09405 -0.109682,-0.06267 -0.235184,-0.09405 -0.376204,-0.09405 h -0.04703 c -0.470065,0.06267 -0.72814,0.09405 -0.775146,0.09405 -0.09401,0 -0.203828,-0.01569 -0.329179,-0.04703 -0.125351,0.03134 -0.258439,0.04703 -0.399459,0.04703 h -0.14108 c -0.03134,0 -0.04703,-0.01569 -0.04703,-0.04703 -0.06268,0.03134 -0.109744,0.04703 -0.141077,0.04703 l -0.211356,-0.04703 -0.09405,0.04703 c -0.03134,0 -0.04703,-0.01569 -0.04703,-0.04703 l -0.775663,0.188103 c 0,-0.06267 -0.03138,-0.09405 -0.09405,-0.09405 -0.109682,0.06267 -0.235185,0.09405 -0.376205,0.09405 l -0.49351,-0.376205 c 0,-0.517073 0.211528,-0.885479 0.634587,-1.104842 h 0.04703 l 0.141077,0.09405 h 0.141077 l 0.258382,-0.04703 c 0,0.06267 0.03138,0.09405 0.09405,0.09405 0.03134,0 0.04703,-0.01569 0.04703,-0.04703 l 0.329178,0.04703 h 0.141077 l 0.258382,-0.04703 v 0.04703 c 0.109683,-0.06267 0.235186,-0.09405 0.376205,-0.09405 l 0.352433,0.04703 c 0.06267,-0.03134 0.109737,-0.04703 0.141077,-0.04703 0.04701,0.03134 0.109758,0.04703 0.188102,0.04703 0,-0.03134 0.01569,-0.04703 0.04703,-0.04703 l -0.04703,-0.09405 v -0.07028 c 0,-0.12535 0.03138,-0.250853 0.09405,-0.376204 -0.03134,-0.172357 -0.04703,-0.321134 -0.04703,-0.446484 v -0.04703 l -0.235127,-0.04703 c -0.14102,0 -0.274108,0.01569 -0.399459,0.04703 -1.002807,-0.04701 -1.504301,-0.188198 -1.504301,-0.42323 0,-0.501404 0.164463,-0.822229 0.49351,-0.963249 h 0.376204 c 0.172358,0 0.258382,0.03138 0.258382,0.09405 l 0.329179,-0.04703 h 0.141077 c 0.07835,0 0.148681,0.01569 0.211356,0.04703 0.04701,-0.03134 0.109759,-0.04703 0.188103,-0.04703 0.06267,0.03134 0.109736,0.04703 0.141076,0.04703 0,-0.03134 0.01569,-0.04703 0.04703,-0.04703 0,-0.03134 -0.01569,-0.04703 -0.04703,-0.04703 l 0.04703,-0.305924 c 0,-1.096819 0.133088,-1.644861 0.399459,-1.644861 z" />
  </g>
</svg>
